<?xml version="1.0" encoding="iso-8859-1"?>
<!-- Generator: Adobe Illustrator 19.0.0, SVG Export Plug-In . SVG Version: 6.00 Build 0)  -->
<svg version="1.1" id="Capa_1" xmlns="http://www.w3.org/2000/svg" xmlns:xlink="http://www.w3.org/1999/xlink" x="0px" y="0px"
	 viewBox="0 0 512 512" style="enable-background:new 0 0 512 512;" xml:space="preserve">
<path style="fill:#DCE4EC;" d="M306.521,182.49V15.453h-49.335L237.169,164.5l20.016,127.173
	c46.412,0.89,105.424-18.673,105.424-35.691C355.679,224.008,334.732,197.26,306.521,182.49z"/>
<path style="fill:#F7F7F8;" d="M205.479,15.453V182.49c-25.52,13.36-45.084,36.529-53.717,64.495
	c0,21.514,55.692,43.734,105.424,44.687V15.453H205.479z"/>
<rect x="458.34" style="fill:#788B9E;" width="30" height="470.16"/>
<polygon style="fill:#BDC4CB;" points="512,450.14 256,450.14 235.984,481.07 256,512 512,512 "/>
<rect y="450.14" style="fill:#DCE4EC;" width="256" height="61.86"/>
<polygon style="fill:#BDC4CB;" points="512,77.313 256,77.313 235.984,108.243 256,139.173 512,139.173 "/>
<rect x="143.62" y="77.31" style="fill:#DCE4EC;" width="112.38" height="61.86"/>
<path style="fill:#00B9ED;" d="M365.088,279.191c0-7.965-0.858-15.73-2.479-23.209c-25.47-5.231-32.796-18.525-70.035-18.525
	c-16.088,0-26.592,2.482-35.389,5.723l-20.016,64.429l20.016,80.655C316.886,387.628,365.088,339.043,365.088,279.191z"/>
<path style="fill:#8AEEFF;" d="M199.859,258.06c-24.338,0-35.898-5.679-48.097-11.074c-3.143,10.181-4.85,20.992-4.85,32.206
	c0,60.248,48.84,109.088,109.088,109.088c0.396,0,0.79-0.011,1.185-0.015V243.18C240.635,249.277,230.128,258.06,199.859,258.06z"/>
<g>
</g>
<g>
</g>
<g>
</g>
<g>
</g>
<g>
</g>
<g>
</g>
<g>
</g>
<g>
</g>
<g>
</g>
<g>
</g>
<g>
</g>
<g>
</g>
<g>
</g>
<g>
</g>
<g>
</g>
</svg>
